<svg width="508" height="357" viewBox="0 0 508 357" fill="none" xmlns="http://www.w3.org/2000/svg">
<path d="M43.9516 292.964C30.9364 276.256 25.035 251.179 28.7111 228.201C32.388 205.222 45.5363 185.011 62.6665 176.002C70.0762 172.105 78.0943 170.208 85.3676 165.917C110.749 150.945 120.202 112.657 134.551 82.2632C155.406 38.0881 192.435 5.59727 232.958 0.632138C273.481 -4.333 316.23 20.2341 337.165 64.3486C348.462 88.1546 353.49 116.517 367.082 138.326C376.609 153.614 390.112 164.878 404.982 169.943C418.056 174.396 431.867 174.127 445.088 177.825C465.529 183.543 484.825 200.106 492.908 224.504C500.991 248.903 495.317 280.807 477.557 294.813L43.9516 292.964V292.964Z" fill="#F58634" fill-opacity="0.490196"/>
<path d="M82.4957 293.106C72.6099 280.416 68.128 261.369 70.921 243.917C73.7132 226.464 83.6999 211.113 96.7109 204.27C102.339 201.311 108.429 199.869 113.953 196.611C133.231 185.239 140.411 156.158 151.309 133.074C167.15 99.5214 195.273 74.8436 226.052 71.0729C256.829 67.3021 289.299 85.9613 305.2 119.468C313.781 137.549 317.6 159.091 327.923 175.655C335.159 187.267 345.415 195.822 356.709 199.669C366.639 203.051 377.129 202.847 387.17 205.656C402.695 209.999 417.351 222.578 423.491 241.109C429.63 259.641 425.32 283.873 411.831 294.511L82.4957 293.106Z" fill="#F58634" fill-opacity="0.490196"/>
<path d="M438.141 105.131C428.859 102.14 419.044 107.059 415.383 116.204L420.157 116.656L414.569 118.77C414.405 119.418 414.275 120.067 414.176 120.717L420.957 122.481L413.988 124.897C414.459 132.718 419.464 139.792 427.087 142.248C436.941 145.422 447.404 139.687 450.455 129.437C453.508 119.188 447.994 108.306 438.14 105.132L438.141 105.131Z" fill="#77A85C"/>
<path d="M390.81 104.832C390.81 113.292 384.217 120.15 376.083 120.15C367.95 120.15 361.356 113.292 361.356 104.832C361.356 96.3716 367.95 89.5133 376.083 89.5133C384.217 89.5133 390.81 96.3716 390.81 104.832Z" fill="#9FE287"/>
<path d="M405.178 129.117C405.178 139.846 396.816 148.545 386.5 148.545C376.185 148.545 367.822 139.847 367.822 129.117C367.822 118.387 376.185 109.689 386.5 109.689C396.816 109.689 405.178 118.387 405.178 129.117Z" fill="#9FE287"/>
<path d="M416.316 141.446C426.83 152.382 426.83 170.113 416.316 181.049C405.802 191.985 388.755 191.985 378.241 181.049C367.728 170.113 367.728 152.382 378.241 141.446C388.755 130.51 405.802 130.51 416.316 141.446Z" fill="#9FE287"/>
<path d="M369.978 91.0077C369.978 91.0077 417.392 179.181 420.266 239.707" stroke="#3C307A" stroke-opacity="0.388235" stroke-width="0.00711" stroke-miterlimit="10"/>
<path d="M470.551 113.051C470.551 121.511 477.144 128.37 485.278 128.37C493.411 128.37 500.005 121.511 500.005 113.051C500.005 104.591 493.411 97.7329 485.278 97.7329C477.144 97.7329 470.551 104.591 470.551 113.051Z" fill="#9FE287"/>
<path d="M456.182 137.336C456.182 148.066 464.545 156.764 474.861 156.764C485.176 156.764 493.539 148.067 493.539 137.336C493.539 126.606 485.176 117.908 474.861 117.908C464.545 117.908 456.182 126.606 456.182 137.336Z" fill="#9FE287"/>
<path d="M445.05 149.666C434.536 160.602 434.536 178.333 445.05 189.269C455.563 200.205 472.611 200.205 483.124 189.269C493.638 178.333 493.638 160.602 483.124 149.666C472.611 138.73 455.563 138.73 445.05 149.666Z" fill="#9FE287"/>
<path d="M491.388 99.2273C491.388 99.2273 443.974 187.4 441.1 247.926" stroke="#3C307A" stroke-opacity="0.388235" stroke-width="0.00711" stroke-miterlimit="10"/>
<path d="M443.64 101.818C441.234 109.899 432.985 114.421 425.215 111.918C417.446 109.415 413.098 100.835 415.505 92.7539C417.912 84.6727 426.16 80.1503 433.93 82.6532C441.7 85.1561 446.047 93.7364 443.64 101.818Z" fill="#77A85C"/>
<path d="M457.586 144.641C464.519 158.323 459.475 175.26 446.321 182.47C433.166 189.682 416.883 184.435 409.951 170.753C403.018 157.071 408.062 140.134 421.216 132.923C434.371 125.713 450.654 130.958 457.587 144.64L457.586 144.641Z" fill="#77A85C"/>
<path d="M427.674 82.2009C427.674 82.2009 447.883 181.018 433.412 239.718" stroke="#3C307A" stroke-opacity="0.388235" stroke-width="0.00711" stroke-miterlimit="10"/>
<path d="M454.355 296.338H411.423L399.227 218.698H464.601L454.355 296.338Z" fill="white"/>
<path d="M401.415 232.615L406.609 236.718L422.413 224.237L438.212 236.718L454.022 224.237L462.942 231.279" stroke="#C75C94" stroke-width="0.02859" stroke-miterlimit="10"/>
<path d="M403.965 248.824L406.612 250.915L422.416 238.435L438.216 250.915L454.026 238.435L461.249 244.136" stroke="#C75C94" stroke-width="0.02859" stroke-miterlimit="10"/>
<path d="M406.509 265.033L406.61 265.113L422.414 252.632L438.214 265.113L454.024 252.632L459.551 256.995" stroke="#C75C94" stroke-width="0.02859" stroke-miterlimit="10"/>
<path d="M408.516 277.805L422.414 266.829L438.214 279.31L454.024 266.829L457.854 269.853" stroke="#C75C94" stroke-width="0.02859" stroke-miterlimit="10"/>
<path d="M410.497 290.435L422.411 281.028L438.211 293.507L454.021 281.028L456.154 282.711" stroke="#C75C94" stroke-width="0.02859" stroke-miterlimit="10"/>
<path d="M484.95 168.241C484.95 170.998 482.801 173.233 480.15 173.233C477.499 173.233 475.35 170.998 475.35 168.241C475.35 165.484 477.499 163.249 480.15 163.249C482.801 163.249 484.95 165.484 484.95 168.241Z" fill="white"/>
<path d="M481.747 156.177C481.747 157.785 480.493 159.089 478.947 159.089C477.4 159.089 476.147 157.786 476.147 156.177C476.147 154.569 477.4 153.265 478.947 153.265C480.492 153.265 481.747 154.569 481.747 156.177Z" fill="white"/>
<path d="M371.761 107.088C371.761 108.696 370.508 110 368.961 110C367.415 110 366.161 108.697 366.161 107.088C366.161 105.479 367.415 104.176 368.961 104.176C370.507 104.176 371.761 105.479 371.761 107.088Z" fill="white"/>
<path d="M477.556 295.657L396.087 295.251C357.852 291.785 312.048 289.764 262.8 289.764C219.822 289.764 179.468 291.304 144.476 293.999L43.9507 293.499C9.63851 302.483 20.5937 323.017 20.5937 323.017C20.5937 341.382 129.033 356.269 262.8 356.269C396.1 356.269 504.235 341.485 504.989 323.209C519.372 298.291 477.556 295.658 477.556 295.658V295.657Z" fill="#F58634" fill-opacity="0.611765"/>
<path d="M410.18 299.42L354.543 299.164C328.432 296.976 297.15 295.7 263.517 295.7C234.167 295.7 206.608 296.671 182.711 298.373L114.059 298.057C90.6268 303.73 98.1085 316.694 98.1085 316.694C98.1085 328.289 172.165 337.689 263.517 337.689C354.551 337.689 428.4 328.354 428.914 316.815C438.737 301.083 410.18 299.42 410.18 299.42Z" fill="#F58634" fill-opacity="0.611765"/>
<path d="M479.534 317.304C479.534 332.828 382.37 345.413 262.511 345.413C142.654 345.413 45.489 332.828 45.489 317.304C45.489 301.78 142.653 289.195 262.511 289.195C382.369 289.195 479.534 301.781 479.534 317.304Z" fill="#F58634"/>
<path d="M479.534 317.304C479.534 332.828 382.37 345.413 262.511 345.413C142.654 345.413 45.489 332.828 45.489 317.304C45.489 301.78 142.653 289.195 262.511 289.195C382.369 289.195 479.534 301.781 479.534 317.304V317.304Z" stroke="#C75C94" stroke-opacity="0.411765" stroke-width="0.01403" stroke-miterlimit="10"/>
<path d="M29.454 101.318C29.454 109.778 22.8604 116.636 14.727 116.636C6.59364 116.636 0 109.778 0 101.318C0 92.8577 6.59364 85.9995 14.727 85.9995C22.8604 85.9995 29.454 92.8577 29.454 101.318Z" fill="#9FE287"/>
<path d="M43.8222 125.603C43.8222 136.332 35.4592 145.031 25.1438 145.031C14.8283 145.031 6.46533 136.333 6.46533 125.603C6.46533 114.873 14.8283 106.175 25.1438 106.175C35.4592 106.175 43.8222 114.873 43.8222 125.603Z" fill="#9FE287"/>
<path d="M54.9595 137.932C65.4732 148.868 65.4732 166.6 54.9595 177.536C44.4457 188.471 27.3985 188.471 16.8848 177.536C6.37108 166.6 6.37108 148.868 16.8848 137.932C27.3985 126.996 44.4457 126.996 54.9595 137.932Z" fill="#9FE287"/>
<path d="M8.62207 87.4938C8.62207 87.4938 56.0359 175.668 58.9095 236.193" stroke="#3C307A" stroke-opacity="0.388235" stroke-width="0.00711" stroke-miterlimit="10"/>
<path d="M109.194 109.537C109.194 117.997 115.788 124.856 123.921 124.856C132.054 124.856 138.648 117.997 138.648 109.537C138.648 101.077 132.054 94.2191 123.921 94.2191C115.788 94.2191 109.194 101.077 109.194 109.537Z" fill="#9FE287"/>
<path d="M94.8259 133.822C94.8259 144.552 103.188 153.251 113.504 153.251C123.82 153.251 132.183 144.553 132.183 133.822C132.183 123.093 123.82 114.394 113.504 114.394C103.188 114.394 94.8259 123.093 94.8259 133.822Z" fill="#9FE287"/>
<path d="M83.6934 146.152C73.1797 157.088 73.1797 174.819 83.6934 185.754C94.2071 196.69 111.254 196.69 121.768 185.754C132.282 174.819 132.282 157.088 121.768 146.152C111.254 135.216 94.2071 135.216 83.6934 146.152Z" fill="#9FE287"/>
<path d="M130.032 95.7136C130.032 95.7136 82.6177 183.886 79.7441 244.412" stroke="#3C307A" stroke-opacity="0.388235" stroke-width="0.00711" stroke-miterlimit="10"/>
<path d="M82.2836 98.3037C79.8778 106.385 71.6283 110.907 63.8585 108.404C56.0895 105.901 51.7423 97.3212 54.1481 89.24C56.5547 81.1588 64.8033 76.6365 72.5732 79.1394C80.343 81.6423 84.6902 90.2225 82.2836 98.3037Z" fill="#77A85C"/>
<path d="M89.0993 125.924C86.047 136.173 75.5849 141.909 65.7313 138.734C55.8777 135.559 50.3637 124.677 53.416 114.427C56.4684 104.178 66.9304 98.4429 76.784 101.617C86.6376 104.792 92.1517 115.674 89.0993 125.924Z" fill="#77A85C"/>
<path d="M96.2305 141.128C103.163 154.81 98.1194 171.747 84.9651 178.957C71.8109 186.169 55.5272 180.922 48.5946 167.24C41.662 153.558 46.7058 136.621 59.86 129.41C73.0142 122.2 89.2979 127.445 96.2305 141.128Z" fill="#77A85C"/>
<path d="M66.3171 78.6879C66.3171 78.6879 86.5269 177.505 72.0549 236.205" stroke="#3C307A" stroke-opacity="0.388235" stroke-width="0.00711" stroke-miterlimit="10"/>
<path d="M93.005 292.824H50.0722L37.8755 215.185H103.249L93.005 292.824Z" fill="white"/>
<path d="M40.0581 229.101L45.2518 233.204L61.0568 220.724L76.8557 233.204L92.6657 220.724L101.585 227.765" stroke="#C75C94" stroke-width="0.02859" stroke-miterlimit="10"/>
<path d="M42.6082 245.31L45.2554 247.401L61.0604 234.921L76.8593 247.401L92.6693 234.921L99.8926 240.623" stroke="#C75C94" stroke-width="0.02859" stroke-miterlimit="10"/>
<path d="M45.1528 261.519L45.2537 261.599L61.0586 249.119L76.8575 261.599L92.6675 249.119L98.1943 253.481" stroke="#C75C94" stroke-width="0.02859" stroke-miterlimit="10"/>
<path d="M47.1597 274.292L61.0588 263.316L76.8577 275.796L92.6677 263.316L96.498 266.339" stroke="#C75C94" stroke-width="0.02859" stroke-miterlimit="10"/>
<path d="M49.1406 286.923L61.056 277.514L76.8549 289.994L92.6649 277.514L94.7987 279.198" stroke="#C75C94" stroke-width="0.02859" stroke-miterlimit="10"/>
<path d="M200.672 49.467C200.671 49.467 200.67 49.467 200.67 49.467C184.23 49.4679 170.204 56.1316 170.204 56.1316C32.0789 86.8219 82.0451 260.279 133.605 297.021C159.899 315.758 213.606 325.192 266.334 325.192C317.005 325.192 366.772 316.48 390.431 298.936C437.86 263.769 416.175 156.675 354.162 156.675C353.048 156.675 351.916 156.71 350.777 156.78C347.752 156.966 344.831 157.057 341.989 157.057C284.146 157.057 263.324 119.202 243.006 76.4834C232.815 55.0583 215.731 49.467 200.673 49.467H200.672Z" fill="#9F8FF6" fill-opacity="0.231373"/>
<path d="M408.218 247.311C393.492 285.811 352.937 302.159 315.905 306.239C277.856 310.432 239.152 303.652 203.602 289.392C168.834 275.447 134.905 253.104 115.858 218.802C105.187 199.585 99.1849 176.836 97.0783 154.841C95.8995 142.531 96.2555 130.017 98.1638 117.804C99.3417 110.265 101.334 102.919 103.252 95.5533C54.731 158.199 93.6878 268.576 133.603 297.021C159.896 315.757 213.604 325.191 266.332 325.191C317.003 325.191 366.769 316.479 390.429 298.935C411.691 283.171 419.054 252.953 415.131 224.407C413.387 232.093 411.116 239.736 408.219 247.311H408.218Z" fill="#9F8FF6" fill-opacity="0.231373"/>
<path d="M130.008 217.519C127.43 221.319 123.403 222.978 121.01 221.223C118.619 219.468 118.77 214.965 121.348 211.164C123.925 207.364 131.867 200.332 134.259 202.087C136.65 203.842 132.586 213.718 130.008 217.519Z" fill="#9FE287"/>
<path d="M130.686 206.959L121.012 221.223" stroke="#3C307A" stroke-opacity="0.388235" stroke-width="0.00526" stroke-miterlimit="10"/>
<path d="M98.7461 220.366C102.336 223.139 106.66 223.406 108.406 220.962C110.15 218.518 108.655 214.288 105.065 211.516C101.476 208.743 91.8195 204.644 90.0738 207.088C88.329 209.532 95.1557 217.593 98.7453 220.366H98.7461Z" fill="#9FE287"/>
<path d="M94.9346 210.555L108.407 220.962" stroke="#3C307A" stroke-opacity="0.388235" stroke-width="0.00526" stroke-miterlimit="10"/>
<path d="M125.548 213.161C123.775 219.166 119.272 223.056 115.493 221.848C111.713 220.641 110.088 214.793 111.862 208.787C113.636 202.782 120.993 190.284 124.772 191.491C128.551 192.699 127.323 207.155 125.548 213.161Z" fill="#77A85C"/>
<path d="M122.152 199.309L115.494 221.849" stroke="#3C307A" stroke-opacity="0.388235" stroke-width="0.00711" stroke-miterlimit="10"/>
<path d="M114.048 208.312C116.93 213.834 116.449 219.901 112.974 221.863C109.499 223.825 104.346 220.938 101.465 215.416C98.584 209.894 95.1529 195.681 98.6281 193.72C102.103 191.757 111.168 202.79 114.049 208.312H114.048Z" fill="#77A85C"/>
<path d="M102.16 201.139L112.974 221.863" stroke="#3C307A" stroke-opacity="0.388235" stroke-width="0.00711" stroke-miterlimit="10"/>
<path d="M120.388 210.761C120.388 217.044 117.183 222.137 113.229 222.137C109.275 222.137 106.07 217.044 106.07 210.761C106.07 204.478 109.573 190.284 113.527 190.284C117.481 190.284 120.388 204.478 120.388 210.761Z" fill="#9FE287"/>
<path d="M113.228 198.558V222.137" stroke="#3C307A" stroke-opacity="0.388235" stroke-width="0.00711" stroke-miterlimit="10"/>
<path d="M100.293 222.927C98.7866 225.325 97.9036 228.186 97.9036 231.265C97.9036 239.701 104.479 246.541 112.59 246.541C120.701 246.541 127.276 239.701 127.276 231.265C127.276 228.186 126.392 225.325 124.887 222.927H100.293Z" fill="white"/>
<path d="M127.258 230.777C127.169 227.885 126.311 225.198 124.885 222.927H100.292C98.8655 225.198 98.0079 227.885 97.9189 230.777H127.257H127.258Z" fill="#5E52B8" fill-opacity="0.329412"/>
<path d="M126.949 225.494H97.5761C96.3194 225.494 95.2915 224.425 95.2915 223.118C95.2915 221.811 96.3194 220.741 97.5761 220.741H126.949C128.205 220.741 129.233 221.81 129.233 223.118C129.233 224.425 128.205 225.494 126.949 225.494Z" fill="white"/>
<path d="M136.489 247.777H92.5454L70.574 284.755L92.5454 321.734H136.489L158.462 284.755L136.489 247.777Z" stroke="#2D2662" stroke-width="0.01204" stroke-miterlimit="10"/>
<path d="M70.5737 284.755H158.461" stroke="#2D2662" stroke-width="0.01204" stroke-miterlimit="10"/>
<path d="M105.092 248.115L91.8933 285.366L103.835 322.006" stroke="#2D2662" stroke-width="0.01204" stroke-miterlimit="10"/>
<path d="M122.685 248.725L132.741 284.755L122.057 322.006" stroke="#2D2662" stroke-width="0.01204" stroke-miterlimit="10"/>
<path d="M140.4 255.275H87.8606C85.459 255.275 83.4939 253.269 83.4939 250.819V250.734C83.4939 248.283 85.459 246.278 87.8606 246.278H140.4C142.802 246.278 144.767 248.283 144.767 250.734V250.819C144.767 253.27 142.802 255.275 140.4 255.275Z" fill="#2D2662"/>
<path d="M291.667 325.114H237.903V343.047H291.667C296.408 343.047 300.288 339.013 300.288 334.08C300.288 329.149 296.408 325.114 291.667 325.114Z" fill="#2D2662"/>
<path d="M286.92 328.969H238.275V339.909H286.92C291.211 339.909 294.72 337.447 294.72 334.439C294.72 331.431 291.21 328.969 286.92 328.969Z" fill="white"/>
<path d="M245.288 334.438L244.937 349.025L247.391 345.379L249.495 348.661L250.196 334.438H245.288Z" fill="#77A85C"/>
<path d="M110.992 61.3268C110.992 67.5304 106.157 72.5587 100.194 72.5587C94.2297 72.5587 89.3953 67.5296 89.3953 61.3268C89.3953 55.1232 94.2297 50.095 100.194 50.095C106.158 50.095 110.992 55.1241 110.992 61.3268Z" fill="#F58634" fill-opacity="0.341176"/>
<path d="M412.155 65.0709C412.155 71.2745 407.32 76.3027 401.357 76.3027C395.393 76.3027 390.558 71.2736 390.558 65.0709C390.558 58.8673 395.393 53.839 401.357 53.839C407.321 53.839 412.155 58.8681 412.155 65.0709Z" fill="#F58634" fill-opacity="0.341176"/>
<path d="M126.588 36.3663C126.588 39.8127 123.902 42.6062 120.588 42.6062C117.275 42.6062 114.589 39.8119 114.589 36.3663C114.589 32.9198 117.274 30.1263 120.588 30.1263C123.902 30.1263 126.588 32.9198 126.588 36.3663Z" fill="#F58634" fill-opacity="0.341176"/>
<path d="M372.559 66.3187C372.559 69.7652 369.873 72.5587 366.56 72.5587C363.246 72.5587 360.56 69.7652 360.56 66.3187C360.56 62.8723 363.246 60.0788 366.56 60.0788C369.873 60.0788 372.559 62.8731 372.559 66.3187Z" fill="#F58634" fill-opacity="0.341176"/>
<path d="M466.149 85.0394C466.149 88.4858 463.463 91.2793 460.149 91.2793C456.836 91.2793 454.15 88.4858 454.15 85.0394C454.15 81.5929 456.836 78.7994 460.149 78.7994C463.463 78.7994 466.149 81.5929 466.149 85.0394Z" fill="#F58634" fill-opacity="0.341176"/>
<path d="M479.022 73.6319C479.022 75.7906 477.34 77.5402 475.265 77.5402C473.189 77.5402 471.507 75.7906 471.507 73.6319C471.507 71.4732 473.189 69.7236 475.265 69.7236C477.34 69.7236 479.022 71.4732 479.022 73.6319Z" fill="#F58634" fill-opacity="0.341176"/>
<path d="M97.4635 31.5905C97.4635 33.7492 95.7814 35.4988 93.7061 35.4988C91.6308 35.4988 89.9487 33.7483 89.9487 31.5905C89.9487 29.4319 91.6308 27.6823 93.7061 27.6823C95.7814 27.6823 97.4635 29.4319 97.4635 31.5905Z" fill="#F58634" fill-opacity="0.341176"/>
<path d="M391.109 258.855C377.344 251.509 366.76 239.287 357.31 226.817C348.738 215.506 341.397 202.641 331.109 192.883C318.527 180.948 303.523 179.041 287.128 178.939C273.007 178.849 259.082 178.445 246.151 171.806C233.825 165.479 225.465 154.401 216.555 143.9C206.981 132.618 196.086 123.396 190.279 109.307C185.167 96.9044 182.867 83.104 175.741 71.6498C173.39 67.8713 168.495 59.8264 163.399 59.5937C160.088 59.4424 158.011 63.4233 156.577 65.9738C152.189 73.7799 149.492 82.6378 143.452 89.3473C135.086 104.631 119.435 120.027 130.7 136.587C135.478 143.613 143.086 148.271 150.217 152.295C157.527 156.42 164.922 160.152 172.67 163.303C179.818 166.21 187.143 169.071 193.255 174.03C199.808 179.348 203.121 186.385 205.957 194.31C211.285 209.193 216.216 227.636 233.057 231.925C254.174 237.303 274.865 222.221 295.506 219.838C296.713 219.699 298.305 220.593 298.592 221.895C301.482 235.018 300.366 248.262 297.949 261.364C297.122 265.848 294.933 272.747 296.482 277.23C298.228 282.284 305.467 279.819 309.2 282.269C312.62 284.512 313.174 317.782 313.541 321.77C316.961 321.5 321.183 291.537 324.593 291.123C324.89 285.523 325.737 279.902 326.463 274.409C328.602 258.209 331.107 242.121 329.975 225.714C329.793 223.082 332.903 221.226 334.892 223.052C343.659 231.107 345.618 245.814 350.115 256.487C352.411 261.933 355.658 269.125 362.547 267.183C367.394 265.817 370.402 261.654 375.867 262.381C381.085 263.076 398.017 281.795 401.356 285.972C405.532 283.484 405.914 278.973 409.755 275.988C406.547 274.999 394.299 260.56 391.109 258.857V258.855Z" fill="#9F8FF6" fill-opacity="0.509804"/>
<path d="M219.578 184.256L259.173 176.145L251.374 151.808L219.578 184.256Z" fill="#3C307A"/>
<path d="M314.839 274.679C314.839 274.679 317.393 310.102 314.839 319.842C312.285 329.583 351.448 339.325 351.448 333.126C351.448 333.126 365.07 338.439 331.867 309.215L339.529 277.335C339.529 277.335 322.501 261.395 314.839 274.678V274.679Z" fill="#D08176"/>
<path d="M337.85 284.315L339.528 277.336C339.528 277.336 322.501 261.395 314.838 274.679C314.838 274.679 315.115 278.52 315.394 284.009C322.881 284.533 330.367 284.563 337.85 284.315Z" fill="#D08176" fill-opacity="0.490196"/>
<path d="M249.281 152.471C249.281 152.471 319.095 158.67 325.055 164.869C331.014 171.068 348.893 279.107 348.893 279.107L300.364 277.336C300.364 277.336 304.621 200.292 301.215 193.207C297.81 186.122 255.697 175.788 255.697 175.788L249.281 152.471Z" fill="#2D2662"/>
<path d="M350.311 320.37C350.311 320.37 335.066 318.504 331.927 333.429C331.927 333.429 349.863 341.358 355.243 336.228C355.243 336.228 362.865 327.833 350.311 320.371V320.37Z" fill="#3C307A"/>
<path d="M313.541 321.769C313.541 321.769 329.234 329.698 338.202 332.497L341.341 336.694C341.341 336.694 308.16 331.564 313.541 321.769Z" fill="#3C307A"/>
<path d="M337.752 326.433C337.752 326.433 330.578 308.244 335.51 308.244C340.442 308.244 343.132 324.101 343.132 324.101L337.751 326.433L337.752 326.433Z" fill="#3C307A"/>
<path d="M346.213 324.577C346.213 324.577 346.048 304.918 350.628 306.824C355.207 308.73 352.042 324.492 352.042 324.492L346.213 324.578V324.577Z" fill="#3C307A"/>
<path d="M351.857 328.598C352.009 329.326 351.186 330.129 350.019 330.392C348.853 330.655 347.785 330.278 347.632 329.55C347.48 328.821 348.303 328.019 349.47 327.756C350.636 327.493 351.705 327.87 351.857 328.598Z" fill="#D08176"/>
<path d="M345.165 327.186C345.165 327.583 344.855 327.905 344.473 327.905C344.091 327.905 343.782 327.583 343.782 327.186C343.782 326.789 344.091 326.466 344.473 326.466C344.855 326.466 345.165 326.788 345.165 327.186Z" fill="#D9D4FE"/>
<path d="M352.773 325.208C352.773 325.605 352.463 325.928 352.081 325.928C351.699 325.928 351.39 325.606 351.39 325.208C351.39 324.811 351.699 324.489 352.081 324.489C352.462 324.489 352.773 324.811 352.773 325.208Z" fill="#D9D4FE"/>
<path d="M339.113 322.87C339.113 322.87 334.791 312.8 336.693 313.16C338.595 313.519 340.496 322.51 340.496 322.51L339.113 322.87Z" fill="#D9D4FE"/>
<path d="M349.143 320.353C349.143 320.353 348.97 310.642 350.181 311.362C351.391 312.081 350.311 320.371 350.311 320.371L349.143 320.354V320.353Z" fill="#D9D4FE"/>
<path d="M313.008 324.668C313.008 324.668 322.171 334.379 352.943 337.255C352.943 337.255 349.139 339.953 329.085 334.018C329.085 334.018 314.563 330.781 313.008 324.667V324.668Z" fill="#2B2362"/>
<path d="M267.689 166.677C267.689 167.712 266.883 168.55 265.889 168.55C264.895 168.55 264.089 167.712 264.089 166.677C264.089 165.644 264.895 164.805 265.889 164.805C266.883 164.805 267.689 165.643 267.689 166.677Z" fill="#C75C94" fill-opacity="0.439216"/>
<path d="M278.773 163.035C278.773 164.07 277.967 164.908 276.973 164.908C275.979 164.908 275.173 164.07 275.173 163.035C275.173 162.002 275.979 161.163 276.973 161.163C277.967 161.163 278.773 162.001 278.773 163.035Z" fill="#C75C94" fill-opacity="0.439216"/>
<path d="M292.2 163.34C292.2 164.373 291.394 165.212 290.4 165.212C289.406 165.212 288.6 164.374 288.6 163.34C288.6 162.306 289.406 161.468 290.4 161.468C291.394 161.468 292.2 162.306 292.2 163.34Z" fill="#C75C94" fill-opacity="0.439216"/>
<path d="M309.997 213.718C309.997 214.751 309.191 215.59 308.197 215.59C307.203 215.59 306.397 214.752 306.397 213.718C306.397 212.683 307.203 211.845 308.197 211.845C309.191 211.845 309.997 212.683 309.997 213.718Z" fill="#C75C94" fill-opacity="0.439216"/>
<path d="M322.834 211.29C322.834 212.325 322.029 213.163 321.035 213.163C320.04 213.163 319.235 212.325 319.235 211.29C319.235 210.257 320.04 209.418 321.035 209.418C322.029 209.418 322.834 210.256 322.834 211.29Z" fill="#C75C94" fill-opacity="0.439216"/>
<path d="M315.831 229.145C315.831 230.178 315.025 231.017 314.031 231.017C313.037 231.017 312.231 230.179 312.231 229.145C312.231 228.111 313.037 227.273 314.031 227.273C315.025 227.273 315.831 228.111 315.831 229.145Z" fill="#C75C94" fill-opacity="0.439216"/>
<path d="M333.044 233.393C333.044 234.427 332.238 235.266 331.244 235.266C330.25 235.266 329.444 234.428 329.444 233.393C329.444 232.36 330.25 231.521 331.244 231.521C332.238 231.521 333.044 232.359 333.044 233.393Z" fill="#C75C94" fill-opacity="0.439216"/>
<path d="M314.419 247.708C314.419 248.742 313.613 249.581 312.619 249.581C311.625 249.581 310.82 248.743 310.82 247.708C310.82 246.674 311.625 245.836 312.619 245.836C313.613 245.836 314.419 246.674 314.419 247.708Z" fill="#C75C94" fill-opacity="0.439216"/>
<path d="M334.503 252.261C334.503 253.294 333.697 254.133 332.703 254.133C331.709 254.133 330.903 253.295 330.903 252.261C330.903 251.227 331.709 250.388 332.703 250.388C333.697 250.388 334.503 251.227 334.503 252.261Z" fill="#C75C94" fill-opacity="0.439216"/>
<path d="M321.665 262.579C321.665 263.614 320.86 264.452 319.866 264.452C318.872 264.452 318.066 263.614 318.066 262.579C318.066 261.546 318.872 260.707 319.866 260.707C320.86 260.707 321.665 261.545 321.665 262.579Z" fill="#C75C94" fill-opacity="0.439216"/>
<path d="M308.828 270.167C308.828 271.2 308.022 272.039 307.028 272.039C306.034 272.039 305.229 271.201 305.229 270.167C305.229 269.133 306.034 268.294 307.028 268.294C308.022 268.294 308.828 269.132 308.828 270.167Z" fill="#C75C94" fill-opacity="0.439216"/>
<path d="M342.09 272.038C342.09 273.072 341.284 273.911 340.29 273.911C339.296 273.911 338.49 273.073 338.49 272.038C338.49 271.005 339.296 270.166 340.29 270.166C341.284 270.166 342.09 271.004 342.09 272.038Z" fill="#C75C94" fill-opacity="0.439216"/>
<path d="M371.315 251.057C371.315 251.057 399.821 270.619 405.669 278.679C411.516 286.738 442.878 260.467 438.163 256.676C438.163 256.676 450.536 248.715 408 258.167L388.437 232.364C388.437 232.364 365.898 236.628 371.316 251.058L371.315 251.057Z" fill="#D08176"/>
<path d="M378.755 256.308C384.319 251.365 389.782 246.318 395.037 241.07L388.437 232.364C388.437 232.364 365.898 236.628 371.316 251.058C371.316 251.058 374.408 253.181 378.755 256.308V256.308Z" fill="#D08176" fill-opacity="0.490196"/>
<path d="M426.904 250.146C426.904 250.146 418.014 263.162 429.096 273.19C429.096 273.19 444.391 260.628 442.647 253.255C442.647 253.255 439.224 242.27 426.904 250.146Z" fill="#3C307A"/>
<path d="M410.44 284.37C410.44 284.37 424.659 273.855 431.323 267.014L436.371 266.164C436.371 266.164 416.118 293.981 410.44 284.37Z" fill="#3C307A"/>
<path d="M425.993 264.513C425.993 264.513 407.208 262.33 409.576 257.83C411.943 253.329 426.609 258.484 426.609 258.484L425.994 264.513H425.993Z" fill="#3C307A"/>
<path d="M428.49 255.902C428.49 255.902 411.828 246.618 415.634 243.353C419.44 240.089 431.215 250.542 431.215 250.542L428.491 255.902H428.49Z" fill="#3C307A"/>
<path d="M434.586 252.681C435.273 252.892 435.555 254.028 435.217 255.219C434.879 256.409 434.047 257.203 433.361 256.992C432.675 256.781 432.392 255.645 432.73 254.454C433.068 253.264 433.899 252.47 434.586 252.681Z" fill="#D08176"/>
<path d="M430.186 258.112C430.521 258.302 430.645 258.739 430.461 259.088C430.278 259.437 429.858 259.565 429.523 259.374C429.188 259.184 429.064 258.746 429.248 258.398C429.432 258.049 429.852 257.921 430.187 258.112H430.186Z" fill="#D9D4FE"/>
<path d="M432.167 250.221C432.503 250.411 432.626 250.849 432.442 251.197C432.258 251.546 431.839 251.674 431.504 251.483C431.168 251.293 431.045 250.856 431.229 250.507C431.413 250.158 431.833 250.03 432.167 250.221Z" fill="#D9D4FE"/>
<path d="M423.638 261.562C423.638 261.562 413.071 260.672 414.287 259.11C415.503 257.547 423.999 260.127 423.999 260.127L423.638 261.562Z" fill="#D9D4FE"/>
<path d="M426.331 251.203C426.331 251.203 418.058 246.701 419.246 245.941C420.433 245.182 426.906 250.146 426.906 250.146L426.331 251.203Z" fill="#D9D4FE"/>
<path d="M412.628 286.246C412.628 286.246 425.215 282.546 442.411 255.845C442.411 255.845 442.861 260.61 428.231 276.062C428.231 276.062 418.532 287.76 412.628 286.245V286.246Z" fill="#2B2362"/>
<path d="M398.284 227.709C398.284 227.709 356.539 190.547 342.053 174.619C339.593 171.914 336.987 169.939 334.355 168.499C333.363 167.878 332.255 167.258 331.014 166.64C311.432 156.899 223.74 183.466 210.118 182.58C210.118 182.58 208.415 232.172 249.281 225.974C275.122 222.053 303.682 207.513 321.193 197.35C336.645 225.482 359.996 263.162 359.996 263.162L398.283 227.709H398.284Z" fill="#3C307A"/>
<path d="M356.735 238.914C348.249 230.463 342.518 219.419 336.519 209.044C331.61 200.556 327.281 191.918 324.83 182.456C322.113 185.619 319.301 188.688 316.149 191.398C311.262 195.602 305.511 198.515 299.834 201.379C287.793 207.454 275.004 212.043 261.578 213.011C250.862 213.784 238.551 213.335 229.259 207.049C220.904 201.397 217.13 191.689 213.449 182.445C212.08 182.584 210.957 182.634 210.118 182.58C210.118 182.58 208.415 232.171 249.281 225.973C275.122 222.052 303.682 207.512 321.193 197.349C336.645 225.481 359.996 263.161 359.996 263.161L375.785 248.54C369.184 247.784 362.721 244.873 356.735 238.914Z" fill="#3C307A" fill-opacity="0.109804"/>
<path d="M229.177 188C229.177 189.034 228.372 189.873 227.378 189.873C226.384 189.873 225.578 189.035 225.578 188C225.578 186.966 226.384 186.128 227.378 186.128C228.372 186.128 229.177 186.966 229.177 188Z" fill="#C75C94"/>
<path d="M222.578 201.728C222.578 202.763 221.772 203.601 220.778 203.601C219.784 203.601 218.978 202.763 218.978 201.728C218.978 200.695 219.784 199.856 220.778 199.856C221.772 199.856 222.578 200.694 222.578 201.728Z" fill="#C75C94"/>
<path d="M240.577 197.984C240.577 199.019 239.771 199.857 238.777 199.857C237.783 199.857 236.977 199.019 236.977 197.984C236.977 196.951 237.783 196.112 238.777 196.112C239.771 196.112 240.577 196.95 240.577 197.984Z" fill="#C75C94"/>
<path d="M251.971 187.377C251.971 188.41 251.165 189.249 250.171 189.249C249.177 189.249 248.371 188.411 248.371 187.377C248.371 186.343 249.177 185.504 250.171 185.504C251.165 185.504 251.971 186.343 251.971 187.377Z" fill="#C75C94"/>
<path d="M260.97 201.105C260.97 202.138 260.165 202.977 259.17 202.977C258.176 202.977 257.371 202.139 257.371 201.105C257.371 200.07 258.176 199.232 259.17 199.232C260.165 199.232 260.97 200.07 260.97 201.105Z" fill="#C75C94"/>
<path d="M275.97 210.465C275.97 211.499 275.164 212.337 274.17 212.337C273.176 212.337 272.37 211.499 272.37 210.465C272.37 209.431 273.176 208.593 274.17 208.593C275.164 208.593 275.97 209.431 275.97 210.465Z" fill="#C75C94"/>
<path d="M271.77 185.504C271.77 186.538 270.964 187.377 269.97 187.377C268.976 187.377 268.17 186.539 268.17 185.504C268.17 184.47 268.976 183.632 269.97 183.632C270.964 183.632 271.77 184.47 271.77 185.504Z" fill="#C75C94"/>
<path d="M285.569 193.616C285.569 194.65 284.763 195.488 283.769 195.488C282.775 195.488 281.969 194.65 281.969 193.616C281.969 192.582 282.775 191.744 283.769 191.744C284.763 191.744 285.569 192.582 285.569 193.616Z" fill="#C75C94"/>
<path d="M295.768 178.017C295.768 179.05 294.963 179.888 293.969 179.888C292.975 179.888 292.169 179.05 292.169 178.017C292.169 176.982 292.975 176.144 293.969 176.144C294.963 176.144 295.768 176.982 295.768 178.017Z" fill="#C75C94"/>
<path d="M310.168 188.624C310.168 189.658 309.362 190.496 308.368 190.496C307.374 190.496 306.568 189.658 306.568 188.624C306.568 187.59 307.374 186.752 308.368 186.752C309.362 186.752 310.168 187.59 310.168 188.624Z" fill="#C75C94"/>
<path d="M314.962 174.273C314.962 175.306 314.156 176.145 313.162 176.145C312.168 176.145 311.363 175.307 311.363 174.273C311.363 173.238 312.168 172.4 313.162 172.4C314.156 172.4 314.962 173.238 314.962 174.273Z" fill="#C75C94"/>
<path d="M330.561 175.521C330.561 176.554 329.756 177.393 328.762 177.393C327.768 177.393 326.962 176.555 326.962 175.521C326.962 174.487 327.768 173.648 328.762 173.648C329.756 173.648 330.561 174.486 330.561 175.521Z" fill="#C75C94"/>
<path d="M329.362 188C329.362 189.034 328.556 189.873 327.562 189.873C326.568 189.873 325.762 189.035 325.762 188C325.762 186.966 326.568 186.128 327.562 186.128C328.556 186.128 329.362 186.966 329.362 188Z" fill="#C75C94"/>
<path d="M346.161 189.248C346.161 190.282 345.355 191.121 344.361 191.121C343.367 191.121 342.561 190.283 342.561 189.248C342.561 188.214 343.367 187.376 344.361 187.376C345.355 187.376 346.161 188.214 346.161 189.248Z" fill="#C75C94"/>
<path d="M338.361 206.097C338.361 207.13 337.555 207.969 336.561 207.969C335.567 207.969 334.761 207.131 334.761 206.097C334.761 205.063 335.567 204.224 336.561 204.224C337.555 204.224 338.361 205.062 338.361 206.097Z" fill="#C75C94"/>
<path d="M351.56 202.353C351.56 203.387 350.755 204.225 349.761 204.225C348.767 204.225 347.961 203.387 347.961 202.353C347.961 201.319 348.767 200.48 349.761 200.48C350.755 200.48 351.56 201.318 351.56 202.353Z" fill="#C75C94"/>
<path d="M350.961 221.073C350.961 222.108 350.155 222.946 349.161 222.946C348.167 222.946 347.361 222.108 347.361 221.073C347.361 220.04 348.167 219.201 349.161 219.201C350.155 219.201 350.961 220.039 350.961 221.073Z" fill="#C75C94"/>
<path d="M367.759 212.337C367.759 213.371 366.954 214.21 365.96 214.21C364.966 214.21 364.16 213.372 364.16 212.337C364.16 211.303 364.966 210.465 365.96 210.465C366.954 210.465 367.759 211.303 367.759 212.337Z" fill="#C75C94"/>
<path d="M362.96 229.809C362.96 230.843 362.154 231.682 361.16 231.682C360.166 231.682 359.36 230.844 359.36 229.809C359.36 228.775 360.166 227.937 361.16 227.937C362.154 227.937 362.96 228.775 362.96 229.809Z" fill="#C75C94"/>
<path d="M361.76 244.162C361.76 245.196 360.954 246.034 359.96 246.034C358.966 246.034 358.16 245.196 358.16 244.162C358.16 243.128 358.966 242.289 359.96 242.289C360.954 242.289 361.76 243.127 361.76 244.162Z" fill="#C75C94"/>
<path d="M379.759 227.313C379.759 228.348 378.953 229.186 377.959 229.186C376.965 229.186 376.159 228.348 376.159 227.313C376.159 226.279 376.965 225.441 377.959 225.441C378.953 225.441 379.759 226.279 379.759 227.313Z" fill="#C75C94"/>
<path d="M374.959 238.545C374.959 239.579 374.153 240.418 373.159 240.418C372.165 240.418 371.359 239.58 371.359 238.545C371.359 237.512 372.165 236.673 373.159 236.673C374.153 236.673 374.959 237.511 374.959 238.545Z" fill="#C75C94"/>
<path d="M298.168 200.48C298.168 201.515 297.362 202.353 296.368 202.353C295.374 202.353 294.569 201.515 294.569 200.48C294.569 199.447 295.374 198.608 296.368 198.608C297.362 198.608 298.168 199.446 298.168 200.48Z" fill="#C75C94"/>
<path d="M235.177 212.337C235.177 213.371 234.371 214.21 233.377 214.21C232.383 214.21 231.577 213.372 231.577 212.337C231.577 211.303 232.383 210.465 233.377 210.465C234.371 210.465 235.177 211.303 235.177 212.337Z" fill="#C75C94"/>
<path d="M251.971 216.705C251.971 217.738 251.165 218.577 250.171 218.577C249.177 218.577 248.371 217.739 248.371 216.705C248.371 215.671 249.177 214.833 250.171 214.833C251.165 214.833 251.971 215.671 251.971 216.705Z" fill="#C75C94"/>
<path d="M272.518 79.7153L266.106 56.9065" stroke="white" stroke-width="2" stroke-miterlimit="10"/>
<path d="M245.899 33.3678C246.122 35.1641 246.472 37.0002 246.994 38.8545C250.346 50.7808 258.769 58.7141 265.808 56.5736C272.847 54.4331 275.836 43.0291 272.483 31.1028C271.961 29.2485 271.306 27.505 270.563 25.8669" stroke="white" stroke-width="2" stroke-miterlimit="10"/>
<path d="M270.563 25.8669L245.899 33.3678" stroke="#9F8FF6" stroke-width="0.01861" stroke-miterlimit="10"/>
<path d="M249.877 37.718C250.014 38.998 250.248 40.303 250.618 41.6176C252.994 50.0707 259.45 55.5444 265.04 53.8449C270.629 52.1455 273.234 43.9147 270.859 35.4624C270.489 34.1479 270.011 32.9163 269.463 31.7617L249.876 37.718H249.877Z" fill="#F58634"/>
<path d="M278.9 79.2561L266.905 82.9041C266.183 83.1238 265.42 82.6887 265.209 81.938C264.998 81.1874 265.416 80.3943 266.137 80.1746L278.132 76.5267C278.854 76.307 279.617 76.742 279.828 77.4927C280.039 78.2434 279.621 79.0365 278.9 79.2561Z" fill="#9F8FF6"/>
<path d="M119.806 115.704C119.806 115.704 113.065 112.198 150.138 73.1987L157.3 78.8955L142.555 116.581C142.555 116.581 123.176 137.176 119.806 115.705V115.704Z" fill="#D08176"/>
<path d="M150.136 73.1979C147.669 75.7924 145.41 78.2192 143.317 80.5094C143.15 92.9062 142.427 105.273 141.499 117.629C142.163 116.993 142.553 116.58 142.553 116.58L157.298 78.8947L150.136 73.1979Z" fill="#D08176" fill-opacity="0.490196"/>
<path d="M153.088 25.8729C153.088 25.8729 134.973 36.3896 138.343 62.2436C141.714 88.0975 164.042 97.2996 178.365 89.8497L192.689 85.4675C192.689 85.4675 171.625 11.4117 153.089 25.8729H153.088Z" fill="#2D2662"/>
<path d="M175.209 103.765C175.209 103.765 161.587 117.049 158.182 119.705C154.776 122.362 176.061 156.899 202.454 161.327L209.14 196.726C209.14 196.726 246.774 174.481 254.437 152.342L210.117 95.7965L198.197 97.5677C198.197 97.5677 199.899 110.851 175.209 103.767V103.765Z" fill="white"/>
<path d="M215.2 180.974C212.982 170.819 214.99 162.375 219.024 153.819C214.939 154.825 210.838 155.638 206.571 155.387C199.985 155 193.64 152.795 187.509 150.403C181.099 147.902 175.45 144.563 170.013 140.834C178.17 150.032 189.713 159.19 202.456 161.327L209.142 196.726C209.142 196.726 213.088 194.39 218.672 190.494C217.098 187.596 215.942 184.373 215.2 180.974V180.974Z" fill="#9F8FF6" fill-opacity="0.160784"/>
<path d="M177.871 148.13C177.871 148.13 114.679 137.175 118.891 115.703C118.891 115.703 122.261 106.063 163.969 121.837C163.969 121.837 178.714 126.658 177.871 148.129V148.13Z" fill="white"/>
<path d="M259.582 119.503C259.582 119.503 266.969 121.059 260.85 66.5852L251.835 66.4857L241.14 105.622C241.14 105.622 244.215 134.262 259.582 119.504V119.503Z" fill="#D08176"/>
<path d="M193.919 107.27C193.919 107.27 250.192 139.118 259.586 119.502C259.586 119.502 262.638 109.748 220.439 95.4609C220.439 95.4609 205.968 89.8134 193.919 107.27Z" fill="white"/>
<path d="M165.726 78.457C165.726 78.457 169.517 93.3559 176.679 103.872C176.679 103.872 198.237 111.855 198.201 97.566C198.201 97.566 192.687 91.1643 191.845 80.6477C191.845 80.6477 169.938 70.131 165.726 78.457Z" fill="#D08176"/>
<path d="M196.24 103.437C197.457 102.125 198.205 100.234 198.198 97.5659C198.198 97.5659 192.685 91.1643 191.842 80.6476C191.842 80.6476 182.068 75.9601 174.322 75.3262C180.307 85.8964 187.962 94.9264 196.24 103.436V103.437Z" fill="#D08176" fill-opacity="0.490196"/>
<path d="M143.981 115.952C143.981 115.952 149.781 110.324 149.088 107.464C148.394 104.603 131.792 91.6185 128.595 92.3052C125.398 92.9919 117.048 96.5508 118.919 120.55C118.919 120.55 140.674 130.661 143.981 115.953V115.952Z" fill="white"/>
<path d="M241.142 105.621C241.142 105.621 241.349 96.9676 241.349 94.6351C241.349 92.3034 240.452 84.8406 245.833 87.6393C251.214 90.4379 261.526 93.2366 264.216 90.9041C266.907 88.5724 267.355 117.022 257.939 121.686C257.939 121.686 238.244 111.476 241.142 105.621H241.142Z" fill="white"/>
<path d="M202.634 48.1654C200.918 47.3853 200.537 44.8755 200.135 42.3709C197.459 29.1481 186.182 19.2196 172.674 19.2196C157.174 19.2196 144.608 32.2893 144.608 48.4119C144.608 60.2206 151.352 70.3844 161.05 74.982L161.559 77.1934C178.498 93.4069 200.588 85.906 200.588 85.906C206.372 70.5695 205.526 49.48 202.634 48.1654H202.634Z" fill="#D08176"/>
<path d="M153.927 66.1873C153.927 66.1873 146.764 63.5582 146.764 67.9404C146.764 72.3226 157.297 88.5352 165.723 78.457L153.927 66.1873Z" fill="#D08176"/>
<path d="M159.405 43.4009C159.405 43.4009 162.775 59.6144 168.252 65.7488C168.252 65.7488 161.089 60.9281 156.877 56.9852C156.877 56.9852 159.405 68.8164 167.831 75.3893C167.831 75.3893 151.821 71.0071 147.188 61.3674C142.553 51.7269 138.762 27.1884 166.146 17.9863C166.146 17.9863 183.84 12.728 191.844 18.8624C191.844 18.8624 200.27 19.3009 202.377 15.7948C204.483 12.2886 202.798 47.7832 159.406 43.4009H159.405Z" fill="#2D2662"/>
<path d="M192.924 124.018C192.924 124.018 187.337 109.844 176.679 103.872C176.679 103.872 173.662 85.6493 167.384 81.9174C166.819 81.581 166.255 81.3224 165.692 81.0984C163.918 83.6886 160.371 84.384 156.66 82.6733C156.545 82.6205 156.432 82.5574 156.317 82.502C154.806 83.7751 153.638 85.5403 153.018 87.6384C153.018 87.6384 154.812 108.626 165.573 110.025C165.573 110.025 168.711 130.546 182.163 129.614C182.163 129.614 187.096 150.135 200.996 145.937C200.996 145.937 207.273 136.144 192.925 124.017L192.924 124.018Z" fill="#2D2662"/>
<path d="M200.994 145.939C200.994 145.939 200.994 156.666 206.823 164.595L206.375 158.531L213.55 167.86L208.169 156.2L214.895 161.797L209.514 153.402L218.482 159.932C218.482 159.932 202.788 134.746 200.994 145.94V145.939Z" fill="#2D2662"/>
<path d="M226.828 136.996C226.533 140.006 218.654 137.759 218.654 137.759C218.654 137.759 216.545 143.914 214.625 145.195C212.704 146.475 211.401 137.346 211.401 137.346C211.401 137.346 204.539 137.454 203.357 135.657C202.176 133.86 209.539 130.043 209.539 130.043C209.539 130.043 205.488 123.536 208.597 121.564C211.707 119.592 215.641 125.944 215.641 125.944C215.641 125.944 221.718 120.274 223.103 122.393C224.489 124.51 221.275 130.713 221.275 130.713C221.275 130.713 227.123 133.988 226.828 136.997L226.828 136.996Z" fill="#F2994A"/>
<path d="M251.973 165.838L247.425 150.441L273.153 142.22L277.701 157.617L251.973 165.838Z" fill="#2D2662"/>
<path d="M253.847 163.752L250.104 151.076L271.284 144.308L275.027 156.983L253.847 163.752Z" fill="#C75C94"/>
<path d="M263.445 153.748C262.849 151.732 263.948 149.575 265.886 148.956C267.824 148.336 269.897 149.479 270.493 151.496C271.089 153.512 269.99 155.669 268.052 156.288C266.113 156.907 264.04 155.764 263.445 153.748Z" fill="white" fill-opacity="0.458824"/>
<path d="M261.601 157.948L259.652 151.35L260.357 151.125L262.306 157.724L261.601 157.948Z" fill="white"/>
<path d="M258.777 158.85L256.828 152.251L257.533 152.025L259.482 158.624L258.777 158.85Z" fill="white"/>
<path d="M251.836 66.4848C251.836 66.4848 251.813 52.6453 256.407 53.3286C256.407 53.3286 257.72 52.6453 257.064 56.743C256.407 60.8398 270.85 55.3774 272.82 50.5974C274.789 45.8173 278.072 45.8173 277.415 50.5974C276.759 55.3774 273.173 61.4029 260.852 66.5842C260.852 66.5842 257.112 73.4953 251.836 66.4848Z" fill="#D08176"/>
<path d="M168.105 54.4806C168.105 54.4806 171.86 46.8664 181.573 47.4701C181.573 47.4701 182.092 45.5934 180.823 45.4697C179.553 45.3469 170.134 46.1564 168.105 54.4798V54.4806Z" fill="#2D2662"/>
<path d="M199.017 37.5156C198.632 37.1696 198.332 36.7545 198.116 36.3082C193.94 36.7882 190.725 39.6941 190.222 40.3462C189.474 41.3157 191.091 42.2792 191.091 42.2792C193.673 39.1709 196.568 37.9307 199.023 37.5199C199.021 37.5182 199.02 37.5164 199.018 37.5156H199.017Z" fill="#2D2662"/>
<path d="M202.047 66.1545C202.047 66.1545 195.168 70.4476 193.596 70.6517C192.024 70.8567 199.296 78.4199 201.654 75.149C201.654 75.149 202.441 73.9226 202.441 72.0831L201.654 71.8781L200.868 69.4254C200.868 69.4254 202.833 68.4031 202.047 66.1545Z" fill="#AF4941"/>
<path d="M200.868 69.4254C200.868 69.4254 198.116 71.0608 196.937 71.0608C195.757 71.0608 198.705 73.3094 201.653 71.8781L200.867 69.4254H200.868Z" fill="white"/>
<path d="M154.484 71.0608C154.484 71.0608 150.749 69.4253 150.946 71.2649C151.142 73.1053 156.449 79.6462 159.397 77.1935C159.397 77.1935 159.397 74.1267 154.484 71.0608Z" fill="#D08176" fill-opacity="0.490196"/>
<path d="M160.476 75.872C160.476 77.0352 159.569 77.9779 158.451 77.9779C157.333 77.9779 156.426 77.0352 156.426 75.872C156.426 74.7087 157.333 73.7661 158.451 73.7661C159.57 73.7661 160.476 74.7087 160.476 75.872Z" fill="#2D2662"/>
<path d="M274.453 147.115L273.554 146.288C277.615 141.513 276.146 137.214 274.199 134.449C268.911 126.945 253.257 121.345 243.874 125.683C242.517 126.311 241.417 127 240.588 127.735C243.896 129.328 245.262 131.251 245.743 134.495C245.971 136.04 245.413 137.139 244.249 137.437C242.259 137.942 238.763 135.812 237.787 132.845C237.421 131.732 237.245 130.01 238.526 128.181C235.177 126.89 230.065 125.696 222.286 123.88C220.547 123.474 218.677 123.037 216.667 122.562C207.329 120.354 194.807 112.025 179.446 97.8029C168.038 87.2396 159.239 77.1891 159.152 77.0879L160.04 76.2499C160.388 76.6486 195.097 116.183 216.932 121.344C218.94 121.82 220.81 122.256 222.548 122.661C230.521 124.523 235.84 125.765 239.359 127.193C240.255 126.294 241.548 125.392 243.385 124.542C252.486 120.336 269.12 125.132 275.166 133.711C278.287 138.142 278.034 142.903 274.452 147.113L274.453 147.115ZM239.697 128.67C238.766 129.857 238.492 131.136 238.922 132.441C239.742 134.932 242.641 136.566 243.962 136.226C244.158 136.176 244.754 136.023 244.556 134.686C244.132 131.816 242.912 130.129 239.698 128.67H239.697Z" fill="#2D2662"/>
<path d="M204.673 72.8104C204.567 72.5405 204.292 72.4082 204.03 72.4627C203.997 72.9704 203.949 73.4763 203.891 73.9822C205.914 79.2657 218.514 112.769 216.244 121.804C216.164 122.122 216.347 122.447 216.653 122.531C216.702 122.544 216.751 122.551 216.798 122.551C217.052 122.551 217.285 122.373 217.352 122.105C219.901 111.959 205.295 74.4043 204.672 72.8104H204.673Z" fill="#2D2662"/>
<path d="M190.645 47.5523C191.361 48.3972 192.084 49.2188 192.814 50.024C193.547 50.8266 194.298 51.5989 195.066 52.3358C195.841 53.064 196.654 53.736 197.517 54.2618C198.369 54.798 199.305 55.1682 200.197 55.0998L200.616 55.0678L200.749 55.3991C201.04 56.129 201.075 56.756 201.021 57.4228C200.957 58.0732 200.785 58.6959 200.523 59.2615C200.281 59.8384 199.927 60.3409 199.556 60.8114C199.175 61.274 198.762 61.6952 198.311 62.0663C198.627 61.5638 198.944 61.0786 199.207 60.5649C199.447 60.0408 199.688 59.5253 199.831 58.9856C199.973 58.4486 200.076 57.9098 200.064 57.377C200.053 56.8676 199.957 56.2856 199.78 55.9336L200.331 56.2328C199.056 56.4309 197.885 55.9171 196.914 55.3334C195.943 54.7107 195.074 53.9703 194.324 53.1332C193.56 52.309 192.879 51.4173 192.264 50.4858C191.653 49.5509 191.103 48.5745 190.646 47.5514L190.645 47.5523Z" fill="#2D2662"/>
<path d="M185.87 54.6874C185.87 54.6874 184.861 60.4629 175.86 58.5403L173.732 60.3496L176.4 59.8264C176.4 59.8264 187.268 62.849 185.87 54.6865V54.6874Z" fill="#2D2662"/>
<path d="M196.096 51.2816C196.096 51.2816 201.222 52.4578 201.793 47.5592L203.011 45.8356L201.398 46.5621C201.398 46.5621 198.638 51.1968 196.097 51.2807L196.096 51.2816Z" fill="#2D2662"/>
<path d="M220.984 248.947C220.984 248.947 239.382 245.619 241.782 255.603C244.181 265.587 242.031 318.911 237.906 325.114C237.906 325.114 241.782 346.293 213.785 344.629L220.985 248.947H220.984Z" fill="#9F8FF6" fill-opacity="0.690196"/>
<path d="M168.587 242.291C168.587 242.291 150.589 236.051 150.589 248.531C150.589 261.011 151.441 312.611 140.991 317.172C140.991 317.172 131.391 333.397 166.187 338.389C200.983 343.381 228.58 348.373 232.18 334.645C235.779 320.916 241.779 259.763 236.979 252.276C232.18 244.788 168.587 242.292 168.587 242.292V242.291Z" fill="#5E52B8"/>
<path d="M167.378 247.287C167.378 247.287 151.454 241.766 151.454 252.808C151.454 263.851 152.207 309.505 142.961 313.54C142.961 313.54 134.468 327.895 165.254 332.312C196.04 336.729 220.458 341.145 223.642 328.999C226.827 316.853 232.135 262.746 227.888 256.121C223.642 249.495 167.378 247.287 167.378 247.287Z" fill="#9F8FF6" fill-opacity="0.360784"/>
<path d="M168.586 242.291C168.586 242.291 168.104 328.103 153.018 334.829" stroke="#2D2662" stroke-opacity="0.45098" stroke-width="0.0143" stroke-miterlimit="10"/>
<path d="M187.502 245.16C187.502 245.16 186.783 330.345 176.008 338.565" stroke="#2D2662" stroke-opacity="0.45098" stroke-width="0.0143" stroke-miterlimit="10"/>
<path d="M210.487 246.654C210.487 246.654 211.925 337.069 199.712 341.553" stroke="#2D2662" stroke-opacity="0.45098" stroke-width="0.0143" stroke-miterlimit="10"/>
<path d="M150.866 278.038L229.889 287.005H238.509" stroke="#2D2662" stroke-opacity="0.45098" stroke-width="0.0143" stroke-miterlimit="10"/>
<path d="M147.99 305.685L227.013 315.4L236.353 313.905" stroke="#2D2662" stroke-opacity="0.45098" stroke-width="0.0143" stroke-miterlimit="10"/>
<path d="M170.976 279.159C170.976 280.603 169.69 281.774 168.103 281.774C166.515 281.774 165.229 280.603 165.229 279.159C165.229 277.714 166.515 276.543 168.103 276.543C169.69 276.543 170.976 277.714 170.976 279.159Z" fill="#2D2662"/>
<path d="M213.362 285.51C213.362 286.954 212.075 288.125 210.488 288.125C208.901 288.125 207.615 286.954 207.615 285.51C207.615 284.066 208.901 282.895 210.488 282.895C212.075 282.895 213.362 284.066 213.362 285.51Z" fill="#2D2662"/>
<path d="M211.929 313.158C211.929 314.602 210.643 315.773 209.055 315.773C207.468 315.773 206.182 314.602 206.182 313.158C206.182 311.714 207.468 310.543 209.055 310.543C210.643 310.543 211.929 311.714 211.929 313.158Z" fill="#2D2662"/>
<path d="M167.387 308.674C167.387 310.119 166.1 311.29 164.513 311.29C162.926 311.29 161.64 310.119 161.64 308.674C161.64 307.23 162.927 306.059 164.513 306.059C166.1 306.059 167.387 307.23 167.387 308.674Z" fill="#2D2662"/>
</svg>
