<svg width="126" height="92" viewBox="0 0 126 92" fill="none" xmlns="http://www.w3.org/2000/svg">    <path d="M12.654 79.4741C12.35 78.9141 11.91 78.4901 11.334 78.2021C10.774 77.8981 10.11 77.7461 9.34203 77.7461C8.01403 77.7461 6.95003 78.1861 6.15003 79.0661C5.35003 79.9301 4.95003 81.0901 4.95003 82.5461C4.95003 84.0981 5.36603 85.3141 6.19803 86.1941C7.04603 87.0581 8.20603 87.4901 9.67803 87.4901C10.686 87.4901 11.534 87.2341 12.222 86.7221C12.926 86.2101 13.438 85.4741 13.758 84.5141H8.55003V81.4901H17.478V85.3061C17.174 86.3301 16.654 87.2821 15.918 88.1621C15.198 89.0421 14.278 89.7541 13.158 90.2981C12.038 90.8421 10.774 91.1141 9.36603 91.1141C7.70203 91.1141 6.21403 90.7541 4.90203 90.0341C3.60603 89.2981 2.59003 88.2821 1.85403 86.9861C1.13403 85.6901 0.774033 84.2101 0.774033 82.5461C0.774033 80.8821 1.13403 79.4021 1.85403 78.1061C2.59003 76.7941 3.60603 75.7781 4.90203 75.0581C6.19803 74.3221 7.67803 73.9541 9.34203 73.9541C11.358 73.9541 13.054 74.4421 14.43 75.4181C15.822 76.3941 16.742 77.7461 17.19 79.4741H12.654ZM25.8473 91.1861C24.5353 91.1861 23.3513 90.9061 22.2953 90.3461C21.2553 89.7861 20.4313 88.9861 19.8233 87.9461C19.2313 86.9061 18.9353 85.6901 18.9353 84.2981C18.9353 82.9221 19.2393 81.7141 19.8473 80.6741C20.4553 79.6181 21.2873 78.8101 22.3433 78.2501C23.3993 77.6901 24.5833 77.4101 25.8953 77.4101C27.2073 77.4101 28.3913 77.6901 29.4473 78.2501C30.5033 78.8101 31.3353 79.6181 31.9433 80.6741C32.5513 81.7141 32.8553 82.9221 32.8553 84.2981C32.8553 85.6741 32.5433 86.8901 31.9193 87.9461C31.3113 88.9861 30.4713 89.7861 29.3993 90.3461C28.3433 90.9061 27.1593 91.1861 25.8473 91.1861ZM25.8473 87.6341C26.6313 87.6341 27.2953 87.3461 27.8393 86.7701C28.3993 86.1941 28.6793 85.3701 28.6793 84.2981C28.6793 83.2261 28.4073 82.4021 27.8633 81.8261C27.3353 81.2501 26.6793 80.9621 25.8953 80.9621C25.0953 80.9621 24.4313 81.2501 23.9033 81.8261C23.3753 82.3861 23.1113 83.2101 23.1113 84.2981C23.1113 85.3701 23.3673 86.1941 23.8793 86.7701C24.4073 87.3461 25.0633 87.6341 25.8473 87.6341ZM41.1285 91.1861C39.8165 91.1861 38.6325 90.9061 37.5765 90.3461C36.5365 89.7861 35.7125 88.9861 35.1045 87.9461C34.5125 86.9061 34.2165 85.6901 34.2165 84.2981C34.2165 82.9221 34.5205 81.7141 35.1285 80.6741C35.7365 79.6181 36.5685 78.8101 37.6245 78.2501C38.6805 77.6901 39.8645 77.4101 41.1765 77.4101C42.4885 77.4101 43.6725 77.6901 44.7285 78.2501C45.7845 78.8101 46.6165 79.6181 47.2245 80.6741C47.8325 81.7141 48.1365 82.9221 48.1365 84.2981C48.1365 85.6741 47.8245 86.8901 47.2005 87.9461C46.5925 88.9861 45.7525 89.7861 44.6805 90.3461C43.6245 90.9061 42.4405 91.1861 41.1285 91.1861ZM41.1285 87.6341C41.9125 87.6341 42.5765 87.3461 43.1205 86.7701C43.6805 86.1941 43.9605 85.3701 43.9605 84.2981C43.9605 83.2261 43.6885 82.4021 43.1445 81.8261C42.6165 81.2501 41.9605 80.9621 41.1765 80.9621C40.3765 80.9621 39.7125 81.2501 39.1845 81.8261C38.6565 82.3861 38.3925 83.2101 38.3925 84.2981C38.3925 85.3701 38.6485 86.1941 39.1605 86.7701C39.6885 87.3461 40.3445 87.6341 41.1285 87.6341ZM49.4978 84.2741C49.4978 82.8981 49.7538 81.6901 50.2658 80.6501C50.7938 79.6101 51.5058 78.8101 52.4018 78.2501C53.2978 77.6901 54.2978 77.4101 55.4018 77.4101C56.2818 77.4101 57.0818 77.5941 57.8018 77.9621C58.5378 78.3301 59.1138 78.8261 59.5298 79.4501V73.2341H63.6338V90.9941H59.5298V89.0741C59.1458 89.7141 58.5938 90.2261 57.8738 90.6101C57.1698 90.9941 56.3458 91.1861 55.4018 91.1861C54.2978 91.1861 53.2978 90.9061 52.4018 90.3461C51.5058 89.7701 50.7938 88.9621 50.2658 87.9221C49.7538 86.8661 49.4978 85.6501 49.4978 84.2741ZM59.5298 84.2981C59.5298 83.2741 59.2418 82.4661 58.6658 81.8741C58.1058 81.2821 57.4178 80.9861 56.6018 80.9861C55.7858 80.9861 55.0898 81.2821 54.5138 81.8741C53.9538 82.4501 53.6738 83.2501 53.6738 84.2741C53.6738 85.2981 53.9538 86.1141 54.5138 86.7221C55.0898 87.3141 55.7858 87.6101 56.6018 87.6101C57.4178 87.6101 58.1058 87.3141 58.6658 86.7221C59.2418 86.1301 59.5298 85.3221 59.5298 84.2981ZM78.7228 74.1461V77.4341H74.2588V90.9941H70.1548V77.4341H65.6908V74.1461H78.7228ZM82.8465 76.2101C82.1265 76.2101 81.5345 76.0021 81.0705 75.5861C80.6225 75.1541 80.3985 74.6261 80.3985 74.0021C80.3985 73.3621 80.6225 72.8341 81.0705 72.4181C81.5345 71.9861 82.1265 71.7701 82.8465 71.7701C83.5505 71.7701 84.1265 71.9861 84.5745 72.4181C85.0385 72.8341 85.2705 73.3621 85.2705 74.0021C85.2705 74.6261 85.0385 75.1541 84.5745 75.5861C84.1265 76.0021 83.5505 76.2101 82.8465 76.2101ZM84.8865 77.6021V90.9941H80.7825V77.6021H84.8865ZM104.949 77.4581C106.613 77.4581 107.933 77.9621 108.909 78.9701C109.901 79.9781 110.397 81.3781 110.397 83.1701V90.9941H106.317V83.7221C106.317 82.8581 106.085 82.1941 105.621 81.7301C105.173 81.2501 104.549 81.0101 103.749 81.0101C102.949 81.0101 102.317 81.2501 101.853 81.7301C101.405 82.1941 101.181 82.8581 101.181 83.7221V90.9941H97.1007V83.7221C97.1007 82.8581 96.8687 82.1941 96.4047 81.7301C95.9567 81.2501 95.3327 81.0101 94.5327 81.0101C93.7327 81.0101 93.1007 81.2501 92.6367 81.7301C92.1887 82.1941 91.9647 82.8581 91.9647 83.7221V90.9941H87.8607V77.6021H91.9647V79.2821C92.3807 78.7221 92.9247 78.2821 93.5967 77.9621C94.2687 77.6261 95.0287 77.4581 95.8767 77.4581C96.8847 77.4581 97.7807 77.6741 98.5647 78.1061C99.3647 78.5381 99.9887 79.1541 100.437 79.9541C100.901 79.2181 101.533 78.6181 102.333 78.1541C103.133 77.6901 104.005 77.4581 104.949 77.4581ZM125.891 84.0821C125.891 84.4661 125.867 84.8661 125.819 85.2821H116.531C116.595 86.1141 116.859 86.7541 117.323 87.2021C117.803 87.6341 118.387 87.8501 119.075 87.8501C120.099 87.8501 120.811 87.4181 121.211 86.5541H125.579C125.355 87.4341 124.947 88.2261 124.355 88.9301C123.779 89.6341 123.051 90.1861 122.171 90.5861C121.291 90.9861 120.307 91.1861 119.219 91.1861C117.907 91.1861 116.739 90.9061 115.715 90.3461C114.691 89.7861 113.891 88.9861 113.315 87.9461C112.739 86.9061 112.451 85.6901 112.451 84.2981C112.451 82.9061 112.731 81.6901 113.291 80.6501C113.867 79.6101 114.667 78.8101 115.691 78.2501C116.715 77.6901 117.891 77.4101 119.219 77.4101C120.515 77.4101 121.667 77.6821 122.675 78.2261C123.683 78.7701 124.467 79.5461 125.027 80.5541C125.603 81.5621 125.891 82.7381 125.891 84.0821ZM121.691 83.0021C121.691 82.2981 121.451 81.7381 120.971 81.3221C120.491 80.9061 119.891 80.6981 119.171 80.6981C118.483 80.6981 117.899 80.8981 117.419 81.2981C116.955 81.6981 116.667 82.2661 116.555 83.0021H121.691Z" fill="#4F3C74"/>    <path d="M58.9885 47.7219C58.9885 39.4377 65.7043 32.7219 73.9885 32.7219H83.8874V62.0877H58.9885V47.7219Z" fill="#FE7603"/>    <ellipse cx="71.0229" cy="13.0048" rx="12.8644" ry="13.0048" fill="#4F3C74"/>    <path fill-rule="evenodd" clip-rule="evenodd" d="M54.0087 0C37.0488 2.60514e-05 23.3 13.8988 23.3 31.0438C23.3 48.1888 37.0488 62.0876 54.0087 62.0876V0ZM84.7173 31.098C84.7174 31.0799 84.7174 31.0619 84.7174 31.0438C84.7174 31.0257 84.7174 31.0077 84.7173 30.9896V31.098Z" fill="#4F3C74"/></svg>