<svg width="135" height="94" viewBox="0 0 135 94" fill="none" xmlns="http://www.w3.org/2000/svg">
<path d="M16.654 79.4741C16.35 78.9141 15.91 78.4901 15.334 78.2021C14.774 77.8981 14.11 77.7461 13.342 77.7461C12.014 77.7461 10.95 78.1861 10.15 79.0661C9.35003 79.9301 8.95003 81.0901 8.95003 82.5461C8.95003 84.0981 9.36603 85.3141 10.198 86.1941C11.046 87.0581 12.206 87.4901 13.678 87.4901C14.686 87.4901 15.534 87.2341 16.222 86.7221C16.926 86.2101 17.438 85.4741 17.758 84.5141H12.55V81.4901H21.478V85.3061C21.174 86.3301 20.654 87.2821 19.918 88.1621C19.198 89.0421 18.278 89.7541 17.158 90.2981C16.038 90.8421 14.774 91.1141 13.366 91.1141C11.702 91.1141 10.214 90.7541 8.90203 90.0341C7.60603 89.2981 6.59003 88.2821 5.85403 86.9861C5.13403 85.6901 4.77403 84.2101 4.77403 82.5461C4.77403 80.8821 5.13403 79.4021 5.85403 78.1061C6.59003 76.7941 7.60603 75.7781 8.90203 75.0581C10.198 74.3221 11.678 73.9541 13.342 73.9541C15.358 73.9541 17.054 74.4421 18.43 75.4181C19.822 76.3941 20.742 77.7461 21.19 79.4741H16.654ZM29.8473 91.1861C28.5353 91.1861 27.3513 90.9061 26.2953 90.3461C25.2553 89.7861 24.4313 88.9861 23.8233 87.9461C23.2313 86.9061 22.9353 85.6901 22.9353 84.2981C22.9353 82.9221 23.2393 81.7141 23.8473 80.6741C24.4553 79.6181 25.2873 78.8101 26.3433 78.2501C27.3993 77.6901 28.5833 77.4101 29.8953 77.4101C31.2073 77.4101 32.3913 77.6901 33.4473 78.2501C34.5033 78.8101 35.3353 79.6181 35.9433 80.6741C36.5513 81.7141 36.8553 82.9221 36.8553 84.2981C36.8553 85.6741 36.5433 86.8901 35.9193 87.9461C35.3113 88.9861 34.4713 89.7861 33.3993 90.3461C32.3433 90.9061 31.1593 91.1861 29.8473 91.1861ZM29.8473 87.6341C30.6313 87.6341 31.2953 87.3461 31.8393 86.7701C32.3993 86.1941 32.6793 85.3701 32.6793 84.2981C32.6793 83.2261 32.4073 82.4021 31.8633 81.8261C31.3353 81.2501 30.6793 80.9621 29.8953 80.9621C29.0953 80.9621 28.4313 81.2501 27.9033 81.8261C27.3753 82.3861 27.1113 83.2101 27.1113 84.2981C27.1113 85.3701 27.3673 86.1941 27.8793 86.7701C28.4073 87.3461 29.0633 87.6341 29.8473 87.6341ZM45.1285 91.1861C43.8165 91.1861 42.6325 90.9061 41.5765 90.3461C40.5365 89.7861 39.7125 88.9861 39.1045 87.9461C38.5125 86.9061 38.2165 85.6901 38.2165 84.2981C38.2165 82.9221 38.5205 81.7141 39.1285 80.6741C39.7365 79.6181 40.5685 78.8101 41.6245 78.2501C42.6805 77.6901 43.8645 77.4101 45.1765 77.4101C46.4885 77.4101 47.6725 77.6901 48.7285 78.2501C49.7845 78.8101 50.6165 79.6181 51.2245 80.6741C51.8325 81.7141 52.1365 82.9221 52.1365 84.2981C52.1365 85.6741 51.8245 86.8901 51.2005 87.9461C50.5925 88.9861 49.7525 89.7861 48.6805 90.3461C47.6245 90.9061 46.4405 91.1861 45.1285 91.1861ZM45.1285 87.6341C45.9125 87.6341 46.5765 87.3461 47.1205 86.7701C47.6805 86.1941 47.9605 85.3701 47.9605 84.2981C47.9605 83.2261 47.6885 82.4021 47.1445 81.8261C46.6165 81.2501 45.9605 80.9621 45.1765 80.9621C44.3765 80.9621 43.7125 81.2501 43.1845 81.8261C42.6565 82.3861 42.3925 83.2101 42.3925 84.2981C42.3925 85.3701 42.6485 86.1941 43.1605 86.7701C43.6885 87.3461 44.3445 87.6341 45.1285 87.6341ZM53.4978 84.2741C53.4978 82.8981 53.7538 81.6901 54.2658 80.6501C54.7938 79.6101 55.5058 78.8101 56.4018 78.2501C57.2978 77.6901 58.2978 77.4101 59.4018 77.4101C60.2818 77.4101 61.0818 77.5941 61.8018 77.9621C62.5378 78.3301 63.1138 78.8261 63.5298 79.4501V73.2341H67.6338V90.9941H63.5298V89.0741C63.1458 89.7141 62.5938 90.2261 61.8738 90.6101C61.1698 90.9941 60.3458 91.1861 59.4018 91.1861C58.2978 91.1861 57.2978 90.9061 56.4018 90.3461C55.5058 89.7701 54.7938 88.9621 54.2658 87.9221C53.7538 86.8661 53.4978 85.6501 53.4978 84.2741ZM63.5298 84.2981C63.5298 83.2741 63.2418 82.4661 62.6658 81.8741C62.1058 81.2821 61.4178 80.9861 60.6018 80.9861C59.7858 80.9861 59.0898 81.2821 58.5138 81.8741C57.9538 82.4501 57.6738 83.2501 57.6738 84.2741C57.6738 85.2981 57.9538 86.1141 58.5138 86.7221C59.0898 87.3141 59.7858 87.6101 60.6018 87.6101C61.4178 87.6101 62.1058 87.3141 62.6658 86.7221C63.2418 86.1301 63.5298 85.3221 63.5298 84.2981ZM82.7228 74.1461V77.4341H78.2588V90.9941H74.1548V77.4341H69.6908V74.1461H82.7228ZM86.8465 76.2101C86.1265 76.2101 85.5345 76.0021 85.0705 75.5861C84.6225 75.1541 84.3985 74.6261 84.3985 74.0021C84.3985 73.3621 84.6225 72.8341 85.0705 72.4181C85.5345 71.9861 86.1265 71.7701 86.8465 71.7701C87.5505 71.7701 88.1265 71.9861 88.5745 72.4181C89.0385 72.8341 89.2705 73.3621 89.2705 74.0021C89.2705 74.6261 89.0385 75.1541 88.5745 75.5861C88.1265 76.0021 87.5505 76.2101 86.8465 76.2101ZM88.8865 77.6021V90.9941H84.7825V77.6021H88.8865ZM108.949 77.4581C110.613 77.4581 111.933 77.9621 112.909 78.9701C113.901 79.9781 114.397 81.3781 114.397 83.1701V90.9941H110.317V83.7221C110.317 82.8581 110.085 82.1941 109.621 81.7301C109.173 81.2501 108.549 81.0101 107.749 81.0101C106.949 81.0101 106.317 81.2501 105.853 81.7301C105.405 82.1941 105.181 82.8581 105.181 83.7221V90.9941H101.101V83.7221C101.101 82.8581 100.869 82.1941 100.405 81.7301C99.9567 81.2501 99.3327 81.0101 98.5327 81.0101C97.7327 81.0101 97.1007 81.2501 96.6367 81.7301C96.1887 82.1941 95.9647 82.8581 95.9647 83.7221V90.9941H91.8607V77.6021H95.9647V79.2821C96.3807 78.7221 96.9247 78.2821 97.5967 77.9621C98.2687 77.6261 99.0287 77.4581 99.8767 77.4581C100.885 77.4581 101.781 77.6741 102.565 78.1061C103.365 78.5381 103.989 79.1541 104.437 79.9541C104.901 79.2181 105.533 78.6181 106.333 78.1541C107.133 77.6901 108.005 77.4581 108.949 77.4581ZM129.891 84.0821C129.891 84.4661 129.867 84.8661 129.819 85.2821H120.531C120.595 86.1141 120.859 86.7541 121.323 87.2021C121.803 87.6341 122.387 87.8501 123.075 87.8501C124.099 87.8501 124.811 87.4181 125.211 86.5541H129.579C129.355 87.4341 128.947 88.2261 128.355 88.9301C127.779 89.6341 127.051 90.1861 126.171 90.5861C125.291 90.9861 124.307 91.1861 123.219 91.1861C121.907 91.1861 120.739 90.9061 119.715 90.3461C118.691 89.7861 117.891 88.9861 117.315 87.9461C116.739 86.9061 116.451 85.6901 116.451 84.2981C116.451 82.9061 116.731 81.6901 117.291 80.6501C117.867 79.6101 118.667 78.8101 119.691 78.2501C120.715 77.6901 121.891 77.4101 123.219 77.4101C124.515 77.4101 125.667 77.6821 126.675 78.2261C127.683 78.7701 128.467 79.5461 129.027 80.5541C129.603 81.5621 129.891 82.7381 129.891 84.0821ZM125.691 83.0021C125.691 82.2981 125.451 81.7381 124.971 81.3221C124.491 80.9061 123.891 80.6981 123.171 80.6981C122.483 80.6981 121.899 80.8981 121.419 81.2981C120.955 81.6981 120.667 82.2661 120.555 83.0021H125.691Z" fill="white"/>
<path d="M62.9883 47.7218C62.9883 39.4376 69.704 32.7218 77.9883 32.7218H87.8872V62.0876H62.9883V47.7218Z" fill="#FE7603"/>
<ellipse cx="75.0226" cy="13.0048" rx="12.8644" ry="13.0048" fill="white"/>
<path fill-rule="evenodd" clip-rule="evenodd" d="M58.0084 0C41.0485 2.60514e-05 27.2998 13.8988 27.2998 31.0438C27.2998 48.1888 41.0485 62.0876 58.0084 62.0876V0ZM88.7171 31.098C88.7171 31.0799 88.7171 31.0619 88.7171 31.0438C88.7171 31.0257 88.7171 31.0077 88.7171 30.9896V31.098Z" fill="white"/>
</svg>

